<?xml version="1.0" standalone="no"?>
<!DOCTYPE svg PUBLIC "-//W3C//DTD SVG 20010904//EN"
 "http://www.w3.org/TR/2001/REC-SVG-20010904/DTD/svg10.dtd">
<svg version="1.0" xmlns="http://www.w3.org/2000/svg"
 width="260.000000pt" height="260.000000pt" viewBox="0 0 260.000000 260.000000"
 preserveAspectRatio="xMidYMid meet">
<metadata>
Created by potrace 1.14, written by Peter Selinger 2001-2017
</metadata>
<g transform="translate(0.000000,260.000000) scale(0.100000,-0.100000)"
fill="#000000" stroke="none">
<path d="M850 2415 c-245 -101 -451 -188 -458 -192 -8 -5 -29 -44 -47 -88 -17
-44 -103 -251 -189 -459 -130 -313 -156 -383 -147 -400 10 -22 155 -370 286
-691 43 -104 83 -195 89 -201 6 -6 58 -30 116 -54 58 -23 119 -49 135 -56 17
-7 109 -45 205 -84 96 -40 193 -80 215 -89 22 -10 67 -28 100 -41 33 -13 65
-26 70 -30 6 -4 25 -12 43 -18 33 -11 63 -4 167 43 17 7 197 82 400 166 204
84 375 156 380 160 6 4 17 25 24 46 8 21 22 56 32 78 10 22 88 210 174 418
l155 378 -116 282 c-65 155 -142 341 -171 412 -30 72 -62 148 -70 170 -20 51
-27 57 -93 84 -30 13 -116 47 -190 78 -74 30 -148 61 -165 68 -44 20 -493 205
-497 205 -2 0 -203 -83 -448 -185z m837 -1 c435 -180 460 -190 492 -207 19
-10 58 -94 196 -427 95 -228 178 -431 185 -450 12 -34 7 -47 -170 -475 -100
-242 -186 -445 -191 -451 -5 -6 -31 -19 -57 -29 -26 -10 -65 -26 -87 -36 -22
-9 -96 -40 -165 -69 -69 -28 -134 -55 -145 -60 -11 -5 -114 -48 -230 -95 -200
-83 -212 -86 -245 -75 -40 15 -305 123 -367 151 -23 11 -44 19 -48 19 -3 0
-24 9 -48 19 -46 21 -106 46 -279 116 -62 26 -118 52 -124 58 -6 7 -37 73 -67
147 -31 74 -112 271 -181 438 -69 166 -126 306 -126 312 0 5 50 130 111 277
61 148 142 345 181 438 38 94 77 176 86 184 19 15 870 370 889 370 7 1 183
-69 390 -155z"/>
<path d="M940 1555 c-137 -37 -211 -128 -211 -260 0 -157 106 -261 276 -272
85 -6 182 13 202 39 12 15 24 108 14 108 -3 0 -15 -19 -26 -41 -29 -62 -82
-93 -158 -92 -144 1 -241 110 -240 269 1 148 90 244 228 246 74 2 122 -25 163
-93 l33 -54 -6 55 c-4 30 -8 60 -10 67 -10 32 -184 50 -265 28z"/>
<path d="M1327 1546 c17 -6 35 -14 38 -18 4 -4 7 -108 8 -232 0 -167 -3 -230
-13 -241 -7 -8 -15 -13 -19 -11 -3 2 -15 0 -26 -5 -12 -4 21 -8 84 -8 95 -1
125 4 75 12 -41 6 -44 14 -44 135 l0 117 158 1 c86 0 159 -4 162 -7 3 -4 5
-55 4 -113 -1 -115 -11 -141 -51 -133 -13 2 -23 0 -23 -4 0 -5 48 -9 108 -8
69 1 96 4 76 8 -17 4 -36 11 -42 15 -14 9 -17 453 -3 474 5 8 24 17 42 21 22
5 -5 8 -76 8 -81 0 -101 -3 -77 -9 18 -5 36 -17 40 -28 5 -15 8 -175 3 -201
-1 -3 -73 -5 -161 -5 l-160 0 0 108 c0 108 2 116 41 123 46 9 26 12 -73 12
-88 0 -98 -2 -71 -11z"/>
</g>
</svg>
