<?xml version="1.0" encoding="utf-8"?><svg viewBox="0 0 52 52" xmlns="http://www.w3.org/2000/svg" xmlns:xlink="http://www.w3.org/1999/xlink"><style>:root>svg{display:none}:root>svg:target{display:block}</style><svg fill="none" viewBox="0 0 30 11" id="arrow" xmlns="http://www.w3.org/2000/svg"><path d="M30 5.5H1m0 0L6.486 10M1 5.5 6.486 1" stroke="#A87B62"/></svg><svg fill="none" viewBox="0 0 20 18" id="cart" xmlns="http://www.w3.org/2000/svg"><path d="M14 5a4 4 0 1 1-8 0M1 1h18v16H1V1Z" stroke="#1D1613" stroke-width="2" stroke-linecap="round" stroke-linejoin="round"/></svg><svg fill="none" viewBox="0 0 12 21" id="facebook" xmlns="http://www.w3.org/2000/svg"><path d="M8 12.075h2.857L12 7.875H8v-2.1c0-1.082 0-2.1 2.286-2.1H12V.147C11.627.102 10.22 0 8.735 0 5.632 0 3.429 1.74 3.429 4.935v2.94H0v4.2h3.429V21H8v-8.925Z" fill="#fff"/></svg><svg fill="none" viewBox="0 0 20 21" id="instagram" xmlns="http://www.w3.org/2000/svg"><path d="M10 0c2.717 0 3.056.01 4.122.063 1.065.053 1.79.228 2.428.488a4.87 4.87 0 0 1 1.772 1.21c.509.526.902 1.16 1.153 1.862.247.668.415 1.43.465 2.549.047 1.12.06 1.475.06 4.328s-.01 3.209-.06 4.328c-.05 1.118-.218 1.88-.465 2.55a5.16 5.16 0 0 1-1.153 1.86c-.5.534-1.105.947-1.772 1.21-.637.26-1.363.436-2.428.489-1.066.05-1.405.063-4.122.063-2.717 0-3.056-.01-4.122-.063-1.065-.053-1.79-.229-2.428-.488a4.873 4.873 0 0 1-1.772-1.21 5.182 5.182 0 0 1-1.153-1.861c-.248-.67-.415-1.432-.465-2.55C.013 13.708 0 13.353 0 10.5s.01-3.209.06-4.328c.05-1.12.217-1.88.465-2.55a5.156 5.156 0 0 1 1.153-1.86A4.88 4.88 0 0 1 3.45.552C4.088.29 4.812.114 5.878.062 6.944.013 7.283 0 10 0Zm0 5.25a4.882 4.882 0 0 0-3.536 1.538A5.386 5.386 0 0 0 5 10.5c0 1.392.527 2.728 1.464 3.712A4.882 4.882 0 0 0 10 15.75a4.882 4.882 0 0 0 3.536-1.538A5.386 5.386 0 0 0 15 10.5a5.386 5.386 0 0 0-1.464-3.712A4.882 4.882 0 0 0 10 5.25Zm6.5-.263a1.35 1.35 0 0 0-.366-.928 1.22 1.22 0 0 0-.884-.384c-.332 0-.65.138-.884.384a1.35 1.35 0 0 0-.366.928c0 .349.132.682.366.929.235.246.553.384.884.384.332 0 .65-.138.884-.384a1.35 1.35 0 0 0 .366-.929ZM10 7.35a2.93 2.93 0 0 1 2.121.923c.563.59.879 1.392.879 2.227s-.316 1.637-.879 2.227A2.93 2.93 0 0 1 10 13.65a2.93 2.93 0 0 1-2.121-.923A3.232 3.232 0 0 1 7 10.5c0-.835.316-1.637.879-2.227A2.93 2.93 0 0 1 10 7.35Z" fill="#fff"/></svg><svg fill="none" viewBox="0 0 52 52" id="logo" xmlns="http://www.w3.org/2000/svg"><path fill-rule="evenodd" clip-rule="evenodd" d="M7.978 7.973 26 .508l18.022 7.465L51.489 26l-7.467 18.027L26 51.492 7.978 44.027.511 26 7.978 7.973ZM26 0l18.385 7.615L52 26l-7.615 18.385L26 52 7.615 44.385 0 26 7.615 7.615 26 0Zm-3.492 20.813c-.488-.101-1.09-.152-1.804-.152-1.169 0-2.224.225-3.166.675-.93.45-1.662 1.085-2.195 1.906-.533.81-.8 1.742-.8 2.8 0 1.09.26 2.057.783 2.9.522.843 1.248 1.501 2.178 1.973.942.461 2.008.692 3.2.692.669 0 1.259-.057 1.77-.169a7.664 7.664 0 0 0 1.667-.59.5.5 0 0 0 .136-.118c.023-.034.04-.118.051-.253l.17-1.855c0-.034-.04-.051-.119-.051-.056 0-.085.011-.085.034-.306.922-.748 1.607-1.327 2.057-.579.45-1.333.675-2.263.675a4.477 4.477 0 0 1-2.434-.709 5.191 5.191 0 0 1-1.77-1.922 5.713 5.713 0 0 1-.647-2.698c0-1.024.199-1.918.596-2.682a4.228 4.228 0 0 1 1.685-1.788c.726-.416 1.566-.624 2.518-.624 1.816 0 2.984.94 3.506 2.817.012.034.046.05.102.05.068-.01.102-.033.102-.067l-.204-2.007a2.285 2.285 0 0 0-.05-.253c-.012-.034-.058-.073-.137-.118a5.876 5.876 0 0 0-1.463-.523Zm15.206 10.473c0-.067-.017-.101-.051-.101-.431 0-.749-.028-.953-.084-.204-.056-.346-.163-.425-.32-.069-.17-.103-.422-.103-.76v-7.808c0-.337.034-.585.102-.742.08-.158.222-.264.426-.32.204-.068.522-.102.953-.102.034 0 .051-.034.051-.101s-.017-.101-.051-.101l-.834.017c-.476.022-.868.033-1.174.033-.34 0-.76-.01-1.26-.033l-.8-.017c-.033 0-.05.034-.05.101s.017.101.05.101c.443 0 .767.034.97.101.205.068.341.186.41.355.078.157.118.404.118.742v3.474h-6.535v-3.474c0-.338.034-.585.102-.742a.676.676 0 0 1 .426-.355c.215-.067.539-.1.97-.1.022 0 .034-.035.034-.102 0-.067-.012-.101-.034-.101l-.817.017c-.5.022-.913.033-1.242.033-.284 0-.664-.01-1.14-.033l-.869-.017c-.022 0-.034.034-.034.101s.012.101.034.101c.432 0 .75.034.954.101.204.057.34.163.408.32.08.158.12.406.12.743v7.808c0 .338-.04.59-.12.76-.068.157-.21.264-.426.32-.204.056-.521.084-.953.084-.022 0-.034.034-.034.101 0 .068.012.101.034.101.363 0 .647-.005.851-.017l1.175-.016 1.225.017c.204.01.482.016.834.016.022 0 .034-.033.034-.1 0-.068-.012-.102-.034-.102-.443 0-.766-.028-.97-.084-.204-.056-.346-.163-.426-.32-.068-.17-.102-.422-.102-.76v-3.946h6.535v3.946c0 .338-.04.59-.119.76-.068.157-.204.264-.408.32-.205.056-.528.084-.97.084-.034 0-.051.034-.051.101 0 .068.017.101.05.101.341 0 .608-.005.8-.017l1.26-.016 1.174.017c.204.01.482.016.834.016.034 0 .051-.033.051-.1Z" fill="#A87B62"/></svg><svg fill="none" viewBox="0 0 20 21" id="pinterest" xmlns="http://www.w3.org/2000/svg"><path d="M11.364.098a9.623 9.623 0 0 0-6.843 1.619c-2.02 1.39-3.493 3.5-4.147 5.94a10.986 10.986 0 0 0 .588 7.341c1.034 2.292 2.822 4.114 5.035 5.13a8.543 8.543 0 0 1 .163-2.408c.185-.881 1.296-5.736 1.296-5.736a4.096 4.096 0 0 1-.324-1.656c0-1.56.857-2.723 1.923-2.723a1.28 1.28 0 0 1 .556.119c.176.08.332.2.46.35.127.15.222.328.278.52.056.193.072.395.047.595 0 .945-.577 2.375-.88 3.717a1.7 1.7 0 0 0-.01.751c.052.248.16.48.312.676.154.196.349.352.57.455.22.103.462.15.703.137 1.898 0 3.17-2.553 3.17-5.566 0-2.31-1.457-4.04-4.142-4.04a4.542 4.542 0 0 0-1.884.326c-.6.242-1.148.61-1.609 1.08a5.002 5.002 0 0 0-1.073 1.659 5.202 5.202 0 0 0-.364 1.968 3.211 3.211 0 0 0 .648 2.069.505.505 0 0 1 .174.262.528.528 0 0 1-.012.32 42.46 42.46 0 0 1-.208.822.382.382 0 0 1-.065.159.36.36 0 0 1-.126.11.34.34 0 0 1-.319-.002c-1.383-.582-2.035-2.18-2.035-4.007 0-2.989 2.383-6.567 7.152-6.567 3.796 0 6.32 2.916 6.32 6.034 0 4.104-2.177 7.19-5.394 7.19a2.748 2.748 0 0 1-1.386-.324 2.91 2.91 0 0 1-1.067-.984s-.578 2.432-.692 2.892a8.618 8.618 0 0 1-1.019 2.237 9.236 9.236 0 0 0 2.846.437 9.572 9.572 0 0 0 3.827-.797 9.967 9.967 0 0 0 3.245-2.277 10.537 10.537 0 0 0 2.165-3.409c.502-1.275.759-2.64.757-4.02-.001-2.536-.876-4.985-2.463-6.896C15.95 1.689 13.758.446 11.367.099l-.003-.001Z" fill="#fff"/></svg><svg fill="none" viewBox="0 0 14 14" id="search" xmlns="http://www.w3.org/2000/svg"><path d="M11.048 10.074 14 13.024l-.975.976-2.951-2.952A6.205 6.205 0 0 1 0 6.202 6.205 6.205 0 0 1 6.203 0a6.205 6.205 0 0 1 4.845 10.074Zm-1.382-.512a4.808 4.808 0 0 0 1.36-3.36 4.823 4.823 0 0 0-4.823-4.824 4.822 4.822 0 0 0-4.825 4.825 4.823 4.823 0 0 0 4.825 4.824 4.808 4.808 0 0 0 3.36-1.361l.103-.104Z" fill="#000"/></svg><svg fill="none" viewBox="0 0 20 18" id="twitter" xmlns="http://www.w3.org/2000/svg"><path d="M19.999 2.137a7.615 7.615 0 0 1-2.357.714c.858-.567 1.5-1.46 1.806-2.513a7.737 7.737 0 0 1-2.606 1.103C16.224.709 15.406.224 14.513.06a3.761 3.761 0 0 0-2.605.477c-.798.472-1.432 1.223-1.804 2.135a4.99 4.99 0 0 0-.254 2.91 10.782 10.782 0 0 1-4.685-1.378A11.96 11.96 0 0 1 1.392.837 4.904 4.904 0 0 0 .837 3.12c0 1.575.724 2.966 1.825 3.78a3.793 3.793 0 0 1-1.858-.568v.057c0 1.049.328 2.065.928 2.877.6.812 1.435 1.369 2.363 1.577a3.744 3.744 0 0 1-1.854.078 4.56 4.56 0 0 0 1.46 2.258 3.85 3.85 0 0 0 2.373.897 7.967 7.967 0 0 1-2.868 1.61A7.471 7.471 0 0 1 0 15.958C1.876 17.293 4.06 18.002 6.29 18c7.547 0 11.675-6.922 11.675-12.924 0-.196-.005-.393-.013-.587A8.884 8.884 0 0 0 20 2.138l-.001-.001Z" fill="#fff"/></svg></svg>